<svg 
 xmlns="http://www.w3.org/2000/svg"
 xmlns:xlink="http://www.w3.org/1999/xlink"
 width="2999px" height="2998px">
<path fill-rule="evenodd"  stroke="rgb(0, 0, 0)" stroke-width="10px" stroke-linecap="butt" stroke-linejoin="miter" fill="none"
 d="M1474.469,50.000 C2260.922,50.000 2898.469,687.547 2898.469,1474.000 C2898.469,2260.453 2260.922,2898.000 1474.469,2898.000 C688.015,2898.000 50.469,2260.453 50.469,1474.000 C50.469,687.547 688.015,50.000 1474.469,50.000 Z"/>
<path fill-rule="evenodd"  stroke="rgb(0, 0, 0)" stroke-width="100px" stroke-dasharray="25, 50" stroke-linecap="butt" stroke-linejoin="miter" fill="none"
 d="M1474.469,50.000 C2260.922,50.000 2898.469,687.547 2898.469,1474.000 C2898.469,2260.453 2260.922,2898.000 1474.469,2898.000 C688.015,2898.000 50.469,2260.453 50.469,1474.000 C50.469,687.547 688.015,50.000 1474.469,50.000 Z"/>
<text kerning="auto" font-family="Myriad Pro" fill="rgb(0, 0, 0)" transform="matrix( 0.68852013513845, 0.72521722504979, -0.72521722504979, 0.68852013513845,1458.69370157207, 56.5190337562663)" font-size="186px"><tspan font-size="186px" font-family="Lexend" fill="#000000">http&#58;&#47;&#47;docchainnotary&#46;com</tspan></text>
<path fill-rule="evenodd"  stroke="rgb(0, 0, 0)" stroke-width="7px" stroke-linecap="butt" stroke-linejoin="miter" fill="none"
 d="M1490.469,2206.562 C1099.140,2206.562 781.906,1889.328 781.906,1498.000 C781.906,1106.672 1099.140,789.437 1490.469,789.437 C1881.797,789.437 2199.031,1106.672 2199.031,1498.000 C2199.031,1889.328 1881.797,2206.562 1490.469,2206.562 Z"/>
<text kerning="auto" font-family="Myriad Pro" fill="rgb(0, 0, 0)" transform="matrix( 1.16086289433642, -7.37809750978606e-17, 0, 1.16086289433642,781.03729497937, 620.260226747695)" font-size="190.634px"><tspan font-size="190.634px" font-family="Lexend" fill="#000000">Stellar&#32;Blockchain</tspan></text>
<path fill-rule="evenodd"  stroke="rgb(0, 0, 0)" stroke-width="5px" stroke-linecap="butt" stroke-linejoin="miter" fill="none"
 d="M1474.750,2798.500 C743.111,2798.500 150.000,2205.389 150.000,1473.750 C150.000,742.111 743.111,149.000 1474.750,149.000 C2206.389,149.000 2799.500,742.111 2799.500,1473.750 C2799.500,2205.389 2206.389,2798.500 1474.750,2798.500 Z"/>
<text kerning="auto" font-family="Myriad Pro" fill="rgb(0, 0, 0)" transform="matrix( 1.22870567557191, 0, 0, 1.22870567557191,643.721368964805, 111.693136299287)" font-size="199.397px"><tspan font-size="199.397px" font-family="Lexend" fill="#000000">Authenticated</tspan></text>
<path fill-rule="evenodd"  stroke="rgb(0, 0, 0)" stroke-width="20px" stroke-dasharray="10, 40" stroke-linecap="round" stroke-linejoin="round" fill="none"
 d="M1489.000,2522.000 C934.506,2522.000 485.000,2072.494 485.000,1518.000 C485.000,963.506 934.506,514.000 1489.000,514.000 C2043.494,514.000 2493.000,963.506 2493.000,1518.000 C2493.000,2072.494 2043.494,2522.000 1489.000,2522.000 Z"/>
<text kerning="auto" font-family="Myriad Pro" fill="rgb(0, 0, 0)" font-size="256px" x="249px" y="420.744px"><tspan font-size="256px" font-family="Lexend" fill="#000000">DocChain&#32;Digital&#32;Notary</tspan></text>
<path fill-rule="evenodd"  fill="rgb(0, 0, 0)"
 d="M1036.000,1022.000 C1098.063,1022.000 1160.144,1022.000 1222.207,1022.000 C1222.207,1084.062 1222.207,1146.144 1222.207,1208.206 C1160.144,1208.206 1098.063,1208.206 1036.000,1208.206 C1036.000,1146.144 1036.000,1084.062 1036.000,1022.000 ZM1336.333,1022.000 C1354.351,1022.000 1372.375,1022.000 1390.393,1022.000 C1390.393,1040.018 1390.393,1058.042 1390.393,1076.060 C1398.401,1076.060 1406.412,1076.060 1414.420,1076.060 C1414.420,1084.068 1414.420,1092.078 1414.420,1100.087 C1388.394,1100.087 1362.360,1100.087 1336.333,1100.087 C1336.333,1110.096 1336.333,1120.110 1336.333,1130.120 C1326.323,1130.120 1316.310,1130.120 1306.300,1130.120 C1306.300,1148.138 1306.300,1166.161 1306.300,1184.180 C1296.290,1184.180 1286.277,1184.180 1276.266,1184.180 C1276.266,1166.161 1276.266,1148.138 1276.266,1130.120 C1268.258,1130.120 1260.248,1130.120 1252.240,1130.120 C1252.240,1112.102 1252.240,1094.078 1252.240,1076.060 C1270.258,1076.060 1288.282,1076.060 1306.300,1076.060 C1306.300,1066.050 1306.300,1056.037 1306.300,1046.026 C1316.310,1046.026 1326.323,1046.026 1336.333,1046.026 C1336.333,1056.037 1336.333,1066.050 1336.333,1076.060 C1344.341,1076.060 1352.352,1076.060 1360.360,1076.060 C1360.360,1066.050 1360.360,1056.037 1360.360,1046.026 C1352.352,1046.026 1344.341,1046.026 1336.333,1046.026 C1336.333,1038.018 1336.333,1030.008 1336.333,1022.000 ZM1414.420,1022.000 C1424.430,1022.000 1434.443,1022.000 1444.453,1022.000 C1444.453,1030.008 1444.453,1038.018 1444.453,1046.026 C1434.443,1046.026 1424.430,1046.026 1414.420,1046.026 C1414.420,1038.018 1414.420,1030.008 1414.420,1022.000 ZM1498.513,1022.000 C1506.521,1022.000 1514.532,1022.000 1522.540,1022.000 C1522.540,1030.008 1522.540,1038.018 1522.540,1046.026 C1514.532,1046.026 1506.521,1046.026 1498.513,1046.026 C1498.513,1038.018 1498.513,1030.008 1498.513,1022.000 ZM1552.573,1022.000 C1560.581,1022.000 1568.592,1022.000 1576.600,1022.000 C1576.600,1030.008 1576.600,1038.018 1576.600,1046.026 C1568.592,1046.026 1560.581,1046.026 1552.573,1046.026 C1552.573,1038.018 1552.573,1030.008 1552.573,1022.000 ZM1636.667,1022.000 C1644.674,1022.000 1652.685,1022.000 1660.693,1022.000 C1660.693,1030.008 1660.693,1038.018 1660.693,1046.026 C1652.685,1046.026 1644.674,1046.026 1636.667,1046.026 C1636.667,1038.018 1636.667,1030.008 1636.667,1022.000 ZM1690.726,1022.000 C1698.735,1022.000 1706.745,1022.000 1714.753,1022.000 C1714.753,1048.026 1714.753,1074.060 1714.753,1100.087 C1706.745,1100.087 1698.735,1100.087 1690.726,1100.087 C1690.726,1110.096 1690.726,1120.110 1690.726,1130.120 C1698.735,1130.120 1706.745,1130.120 1714.753,1130.120 C1714.753,1138.128 1714.753,1146.138 1714.753,1154.146 C1706.745,1154.146 1698.735,1154.146 1690.726,1154.146 C1690.726,1164.157 1690.726,1174.170 1690.726,1184.180 C1680.716,1184.180 1670.703,1184.180 1660.693,1184.180 C1660.693,1202.198 1660.693,1220.222 1660.693,1238.240 C1652.685,1238.240 1644.674,1238.240 1636.667,1238.240 C1636.667,1220.222 1636.667,1202.198 1636.667,1184.180 C1626.656,1184.180 1616.643,1184.180 1606.633,1184.180 C1606.633,1174.170 1606.633,1164.157 1606.633,1154.146 C1596.623,1154.146 1586.610,1154.146 1576.600,1154.146 C1576.600,1146.138 1576.600,1138.128 1576.600,1130.120 C1586.610,1130.120 1596.623,1130.120 1606.633,1130.120 C1606.633,1120.110 1606.633,1110.096 1606.633,1100.087 C1588.615,1100.087 1570.591,1100.087 1552.573,1100.087 C1552.573,1110.096 1552.573,1120.110 1552.573,1130.120 C1534.555,1130.120 1516.531,1130.120 1498.513,1130.120 C1498.513,1138.128 1498.513,1146.138 1498.513,1154.146 C1506.521,1154.146 1514.532,1154.146 1522.540,1154.146 C1522.540,1164.157 1522.540,1174.170 1522.540,1184.180 C1514.532,1184.180 1506.521,1184.180 1498.513,1184.180 C1498.513,1192.188 1498.513,1200.198 1498.513,1208.206 C1506.521,1208.206 1514.532,1208.206 1522.540,1208.206 C1522.540,1200.198 1522.540,1192.188 1522.540,1184.180 C1532.550,1184.180 1542.563,1184.180 1552.573,1184.180 C1552.573,1202.198 1552.573,1220.222 1552.573,1238.240 C1524.545,1238.240 1496.508,1238.240 1468.480,1238.240 C1468.480,1256.258 1468.480,1274.282 1468.480,1292.300 C1450.462,1292.300 1432.438,1292.300 1414.420,1292.300 C1414.420,1302.310 1414.420,1312.323 1414.420,1322.333 C1406.412,1322.333 1398.401,1322.333 1390.393,1322.333 C1390.393,1294.305 1390.393,1266.268 1390.393,1238.240 C1398.401,1238.240 1406.412,1238.240 1414.420,1238.240 C1414.420,1220.222 1414.420,1202.198 1414.420,1184.180 C1424.430,1184.180 1434.443,1184.180 1444.453,1184.180 C1444.453,1192.188 1444.453,1200.198 1444.453,1208.206 C1452.461,1208.206 1460.472,1208.206 1468.480,1208.206 C1468.480,1200.198 1468.480,1192.188 1468.480,1184.180 C1460.472,1184.180 1452.461,1184.180 1444.453,1184.180 C1444.453,1174.170 1444.453,1164.157 1444.453,1154.146 C1452.461,1154.146 1460.472,1154.146 1468.480,1154.146 C1468.480,1136.128 1468.480,1118.105 1468.480,1100.087 C1460.472,1100.087 1452.461,1100.087 1444.453,1100.087 C1444.453,1092.078 1444.453,1084.068 1444.453,1076.060 C1452.461,1076.060 1460.472,1076.060 1468.480,1076.060 C1468.480,1066.050 1468.480,1056.037 1468.480,1046.026 C1478.490,1046.026 1488.503,1046.026 1498.513,1046.026 C1498.513,1056.037 1498.513,1066.050 1498.513,1076.060 C1506.521,1076.060 1514.532,1076.060 1522.540,1076.060 C1522.540,1066.050 1522.540,1056.037 1522.540,1046.026 C1532.550,1046.026 1542.563,1046.026 1552.573,1046.026 C1552.573,1056.037 1552.573,1066.050 1552.573,1076.060 C1560.581,1076.060 1568.592,1076.060 1576.600,1076.060 C1576.600,1066.050 1576.600,1056.037 1576.600,1046.026 C1586.610,1046.026 1596.623,1046.026 1606.633,1046.026 C1606.633,1056.037 1606.633,1066.050 1606.633,1076.060 C1616.643,1076.060 1626.656,1076.060 1636.667,1076.060 C1636.667,1102.086 1636.667,1128.120 1636.667,1154.146 C1644.674,1154.146 1652.685,1154.146 1660.693,1154.146 C1660.693,1128.120 1660.693,1102.086 1660.693,1076.060 C1670.703,1076.060 1680.716,1076.060 1690.726,1076.060 C1690.726,1058.042 1690.726,1040.018 1690.726,1022.000 ZM1744.786,1022.000 C1808.851,1022.000 1872.935,1022.000 1937.000,1022.000 C1937.000,1084.062 1937.000,1146.144 1937.000,1208.206 C1872.935,1208.206 1808.851,1208.206 1744.786,1208.206 C1744.786,1146.144 1744.786,1084.062 1744.786,1022.000 ZM1060.026,1046.026 C1060.026,1092.073 1060.026,1138.133 1060.026,1184.180 C1106.073,1184.180 1152.133,1184.180 1198.180,1184.180 C1198.180,1138.133 1198.180,1092.073 1198.180,1046.026 C1152.133,1046.026 1106.073,1046.026 1060.026,1046.026 ZM1768.813,1046.026 C1768.813,1092.073 1768.813,1138.133 1768.813,1184.180 C1814.860,1184.180 1860.920,1184.180 1906.966,1184.180 C1906.966,1138.133 1906.966,1092.073 1906.966,1046.026 C1860.920,1046.026 1814.860,1046.026 1768.813,1046.026 ZM1090.060,1076.060 C1116.086,1076.060 1142.120,1076.060 1168.146,1076.060 C1168.146,1102.086 1168.146,1128.120 1168.146,1154.146 C1142.120,1154.146 1116.086,1154.146 1090.060,1154.146 C1090.060,1128.120 1090.060,1102.086 1090.060,1076.060 ZM1798.846,1076.060 C1824.873,1076.060 1850.907,1076.060 1876.933,1076.060 C1876.933,1102.086 1876.933,1128.120 1876.933,1154.146 C1850.907,1154.146 1824.873,1154.146 1798.846,1154.146 C1798.846,1128.120 1798.846,1102.086 1798.846,1076.060 ZM1414.420,1100.087 C1424.430,1100.087 1434.443,1100.087 1444.453,1100.087 C1444.453,1110.096 1444.453,1120.110 1444.453,1130.120 C1434.443,1130.120 1424.430,1130.120 1414.420,1130.120 C1414.420,1120.110 1414.420,1110.096 1414.420,1100.087 ZM1336.333,1130.120 C1362.360,1130.120 1388.394,1130.120 1414.420,1130.120 C1414.420,1148.138 1414.420,1166.161 1414.420,1184.180 C1406.412,1184.180 1398.401,1184.180 1390.393,1184.180 C1390.393,1192.188 1390.393,1200.198 1390.393,1208.206 C1380.383,1208.206 1370.370,1208.206 1360.360,1208.206 C1360.360,1190.188 1360.360,1172.165 1360.360,1154.146 C1352.352,1154.146 1344.341,1154.146 1336.333,1154.146 C1336.333,1146.138 1336.333,1138.128 1336.333,1130.120 ZM1252.240,1184.180 C1260.248,1184.180 1268.258,1184.180 1276.266,1184.180 C1276.266,1192.188 1276.266,1200.198 1276.266,1208.206 C1268.258,1208.206 1260.248,1208.206 1252.240,1208.206 C1252.240,1200.198 1252.240,1192.188 1252.240,1184.180 ZM1306.300,1184.180 C1316.310,1184.180 1326.323,1184.180 1336.333,1184.180 C1336.333,1202.198 1336.333,1220.222 1336.333,1238.240 C1326.323,1238.240 1316.310,1238.240 1306.300,1238.240 C1306.300,1220.222 1306.300,1202.198 1306.300,1184.180 ZM1576.600,1184.180 C1586.610,1184.180 1596.623,1184.180 1606.633,1184.180 C1606.633,1192.188 1606.633,1200.198 1606.633,1208.206 C1596.623,1208.206 1586.610,1208.206 1576.600,1208.206 C1576.600,1200.198 1576.600,1192.188 1576.600,1184.180 ZM1690.726,1184.180 C1698.735,1184.180 1706.745,1184.180 1714.753,1184.180 C1714.753,1210.206 1714.753,1236.240 1714.753,1262.267 C1706.745,1262.267 1698.735,1262.267 1690.726,1262.267 C1690.726,1236.240 1690.726,1210.206 1690.726,1184.180 ZM1114.087,1238.240 C1132.105,1238.240 1150.128,1238.240 1168.146,1238.240 C1168.146,1246.248 1168.146,1254.258 1168.146,1262.267 C1150.128,1262.267 1132.105,1262.267 1114.087,1262.267 C1114.087,1254.258 1114.087,1246.248 1114.087,1238.240 ZM1198.180,1238.240 C1216.198,1238.240 1234.222,1238.240 1252.240,1238.240 C1252.240,1246.248 1252.240,1254.258 1252.240,1262.267 C1234.222,1262.267 1216.198,1262.267 1198.180,1262.267 C1198.180,1254.258 1198.180,1246.248 1198.180,1238.240 ZM1276.266,1238.240 C1286.277,1238.240 1296.290,1238.240 1306.300,1238.240 C1306.300,1246.248 1306.300,1254.258 1306.300,1262.267 C1296.290,1262.267 1286.277,1262.267 1276.266,1262.267 C1276.266,1254.258 1276.266,1246.248 1276.266,1238.240 ZM1336.333,1238.240 C1344.341,1238.240 1352.352,1238.240 1360.360,1238.240 C1360.360,1246.248 1360.360,1254.258 1360.360,1262.267 C1352.352,1262.267 1344.341,1262.267 1336.333,1262.267 C1336.333,1254.258 1336.333,1246.248 1336.333,1238.240 ZM1552.573,1238.240 C1560.581,1238.240 1568.592,1238.240 1576.600,1238.240 C1576.600,1246.248 1576.600,1254.258 1576.600,1262.267 C1568.592,1262.267 1560.581,1262.267 1552.573,1262.267 C1552.573,1254.258 1552.573,1246.248 1552.573,1238.240 ZM1822.873,1238.240 C1840.891,1238.240 1858.915,1238.240 1876.933,1238.240 C1876.933,1246.248 1876.933,1254.258 1876.933,1262.267 C1868.925,1262.267 1860.915,1262.267 1852.906,1262.267 C1852.906,1272.276 1852.906,1282.290 1852.906,1292.300 C1834.888,1292.300 1816.865,1292.300 1798.846,1292.300 C1798.846,1302.310 1798.846,1312.323 1798.846,1322.333 C1806.855,1322.333 1814.865,1322.333 1822.873,1322.333 C1822.873,1340.351 1822.873,1358.375 1822.873,1376.393 C1832.883,1376.393 1842.896,1376.393 1852.906,1376.393 C1852.906,1384.401 1852.906,1392.412 1852.906,1400.420 C1834.888,1400.420 1816.865,1400.420 1798.846,1400.420 C1798.846,1418.438 1798.846,1436.462 1798.846,1454.480 C1788.836,1454.480 1778.823,1454.480 1768.813,1454.480 C1768.813,1428.453 1768.813,1402.419 1768.813,1376.393 C1760.805,1376.393 1752.794,1376.393 1744.786,1376.393 C1744.786,1366.383 1744.786,1356.370 1744.786,1346.360 C1734.776,1346.360 1724.763,1346.360 1714.753,1346.360 C1714.753,1338.352 1714.753,1330.341 1714.753,1322.333 C1724.763,1322.333 1734.776,1322.333 1744.786,1322.333 C1744.786,1312.323 1744.786,1302.310 1744.786,1292.300 C1752.794,1292.300 1760.805,1292.300 1768.813,1292.300 C1768.813,1282.290 1768.813,1272.276 1768.813,1262.267 C1786.831,1262.267 1804.855,1262.267 1822.873,1262.267 C1822.873,1254.258 1822.873,1246.248 1822.873,1238.240 ZM1168.146,1262.267 C1178.157,1262.267 1188.170,1262.267 1198.180,1262.267 C1198.180,1272.276 1198.180,1282.290 1198.180,1292.300 C1216.198,1292.300 1234.222,1292.300 1252.240,1292.300 C1252.240,1310.318 1252.240,1328.342 1252.240,1346.360 C1242.230,1346.360 1232.217,1346.360 1222.207,1346.360 C1222.207,1338.352 1222.207,1330.341 1222.207,1322.333 C1204.188,1322.333 1186.165,1322.333 1168.146,1322.333 C1168.146,1302.313 1168.146,1282.287 1168.146,1262.267 ZM1252.240,1262.267 C1260.248,1262.267 1268.258,1262.267 1276.266,1262.267 C1276.266,1272.276 1276.266,1282.290 1276.266,1292.300 C1268.258,1292.300 1260.248,1292.300 1252.240,1292.300 C1252.240,1282.290 1252.240,1272.276 1252.240,1262.267 ZM1498.513,1262.267 C1516.531,1262.267 1534.555,1262.267 1552.573,1262.267 C1552.573,1272.276 1552.573,1282.290 1552.573,1292.300 C1534.555,1292.300 1516.531,1292.300 1498.513,1292.300 C1498.513,1282.290 1498.513,1272.276 1498.513,1262.267 ZM1606.633,1262.267 C1634.662,1262.267 1662.698,1262.267 1690.726,1262.267 C1690.726,1272.276 1690.726,1282.290 1690.726,1292.300 C1698.735,1292.300 1706.745,1292.300 1714.753,1292.300 C1714.753,1302.310 1714.753,1312.323 1714.753,1322.333 C1696.735,1322.333 1678.711,1322.333 1660.693,1322.333 C1660.693,1330.341 1660.693,1338.352 1660.693,1346.360 C1652.685,1346.360 1644.674,1346.360 1636.667,1346.360 C1636.667,1364.378 1636.667,1382.402 1636.667,1400.420 C1626.656,1400.420 1616.643,1400.420 1606.633,1400.420 C1606.633,1382.402 1606.633,1364.378 1606.633,1346.360 C1596.623,1346.360 1586.610,1346.360 1576.600,1346.360 C1576.600,1338.352 1576.600,1330.341 1576.600,1322.333 C1568.592,1322.333 1560.581,1322.333 1552.573,1322.333 C1552.573,1312.323 1552.573,1302.310 1552.573,1292.300 C1570.591,1292.300 1588.615,1292.300 1606.633,1292.300 C1606.633,1302.310 1606.633,1312.323 1606.633,1322.333 C1616.643,1322.333 1626.656,1322.333 1636.667,1322.333 C1636.667,1312.323 1636.667,1302.310 1636.667,1292.300 C1626.656,1292.300 1616.643,1292.300 1606.633,1292.300 C1606.633,1282.290 1606.633,1272.276 1606.633,1262.267 ZM1714.753,1262.267 C1724.763,1262.267 1734.776,1262.267 1744.786,1262.267 C1744.786,1272.276 1744.786,1282.290 1744.786,1292.300 C1734.776,1292.300 1724.763,1292.300 1714.753,1292.300 C1714.753,1282.290 1714.753,1272.276 1714.753,1262.267 ZM1036.000,1292.300 C1072.036,1292.300 1108.083,1292.300 1144.120,1292.300 C1144.120,1302.310 1144.120,1312.323 1144.120,1322.333 C1126.102,1322.333 1108.078,1322.333 1090.060,1322.333 C1090.060,1330.341 1090.060,1338.352 1090.060,1346.360 C1080.050,1346.360 1070.037,1346.360 1060.026,1346.360 C1060.026,1338.352 1060.026,1330.341 1060.026,1322.333 C1052.018,1322.333 1044.008,1322.333 1036.000,1322.333 C1036.000,1312.323 1036.000,1302.310 1036.000,1292.300 ZM1276.266,1292.300 C1286.277,1292.300 1296.290,1292.300 1306.300,1292.300 C1306.300,1302.310 1306.300,1312.323 1306.300,1322.333 C1316.310,1322.333 1326.323,1322.333 1336.333,1322.333 C1336.333,1330.341 1336.333,1338.352 1336.333,1346.360 C1316.313,1346.360 1296.287,1346.360 1276.266,1346.360 C1276.266,1328.342 1276.266,1310.318 1276.266,1292.300 ZM1468.480,1292.300 C1478.490,1292.300 1488.503,1292.300 1498.513,1292.300 C1498.513,1302.310 1498.513,1312.323 1498.513,1322.333 C1488.503,1322.333 1478.490,1322.333 1468.480,1322.333 C1468.480,1312.323 1468.480,1302.310 1468.480,1292.300 ZM1876.933,1292.300 C1896.953,1292.300 1916.980,1292.300 1937.000,1292.300 C1937.000,1302.310 1937.000,1312.323 1937.000,1322.333 C1916.980,1322.333 1896.953,1322.333 1876.933,1322.333 C1876.933,1312.323 1876.933,1302.310 1876.933,1292.300 ZM1522.540,1322.333 C1532.550,1322.333 1542.563,1322.333 1552.573,1322.333 C1552.573,1330.341 1552.573,1338.352 1552.573,1346.360 C1542.563,1346.360 1532.550,1346.360 1522.540,1346.360 C1522.540,1338.352 1522.540,1330.341 1522.540,1322.333 ZM1852.906,1322.333 C1860.915,1322.333 1868.925,1322.333 1876.933,1322.333 C1876.933,1330.341 1876.933,1338.352 1876.933,1346.360 C1868.925,1346.360 1860.915,1346.360 1852.906,1346.360 C1852.906,1338.352 1852.906,1330.341 1852.906,1322.333 ZM1090.060,1346.360 C1108.078,1346.360 1126.102,1346.360 1144.120,1346.360 C1144.120,1356.370 1144.120,1366.383 1144.120,1376.393 C1152.128,1376.393 1160.138,1376.393 1168.146,1376.393 C1168.146,1366.383 1168.146,1356.370 1168.146,1346.360 C1186.165,1346.360 1204.188,1346.360 1222.207,1346.360 C1222.207,1356.370 1222.207,1366.383 1222.207,1376.393 C1214.198,1376.393 1206.188,1376.393 1198.180,1376.393 C1198.180,1384.401 1198.180,1392.412 1198.180,1400.420 C1188.170,1400.420 1178.157,1400.420 1168.146,1400.420 C1168.146,1410.430 1168.146,1420.443 1168.146,1430.453 C1160.138,1430.453 1152.128,1430.453 1144.120,1430.453 C1144.120,1420.443 1144.120,1410.430 1144.120,1400.420 C1134.110,1400.420 1124.097,1400.420 1114.087,1400.420 C1114.087,1392.412 1114.087,1384.401 1114.087,1376.393 C1106.078,1376.393 1098.068,1376.393 1090.060,1376.393 C1090.060,1366.383 1090.060,1356.370 1090.060,1346.360 ZM1336.333,1346.360 C1344.341,1346.360 1352.352,1346.360 1360.360,1346.360 C1360.360,1356.370 1360.360,1366.383 1360.360,1376.393 C1378.378,1376.393 1396.402,1376.393 1414.420,1376.393 C1414.420,1384.401 1414.420,1392.412 1414.420,1400.420 C1406.412,1400.420 1398.401,1400.420 1390.393,1400.420 C1390.393,1410.430 1390.393,1420.443 1390.393,1430.453 C1344.347,1430.453 1298.286,1430.453 1252.240,1430.453 C1252.240,1420.443 1252.240,1410.430 1252.240,1400.420 C1270.258,1400.420 1288.282,1400.420 1306.300,1400.420 C1306.300,1392.412 1306.300,1384.401 1306.300,1376.393 C1316.310,1376.393 1326.323,1376.393 1336.333,1376.393 C1336.333,1366.383 1336.333,1356.370 1336.333,1346.360 ZM1414.420,1346.360 C1442.448,1346.360 1470.485,1346.360 1498.513,1346.360 C1498.513,1356.370 1498.513,1366.383 1498.513,1376.393 C1506.521,1376.393 1514.532,1376.393 1522.540,1376.393 C1522.540,1384.401 1522.540,1392.412 1522.540,1400.420 C1504.521,1400.420 1486.498,1400.420 1468.480,1400.420 C1468.480,1392.412 1468.480,1384.401 1468.480,1376.393 C1450.462,1376.393 1432.438,1376.393 1414.420,1376.393 C1414.420,1366.383 1414.420,1356.370 1414.420,1346.360 ZM1552.573,1346.360 C1560.581,1346.360 1568.592,1346.360 1576.600,1346.360 C1576.600,1364.378 1576.600,1382.402 1576.600,1400.420 C1568.592,1400.420 1560.581,1400.420 1552.573,1400.420 C1552.573,1382.402 1552.573,1364.378 1552.573,1346.360 ZM1690.726,1346.360 C1698.735,1346.360 1706.745,1346.360 1714.753,1346.360 C1714.753,1356.370 1714.753,1366.383 1714.753,1376.393 C1706.745,1376.393 1698.735,1376.393 1690.726,1376.393 C1690.726,1366.383 1690.726,1356.370 1690.726,1346.360 ZM1906.966,1346.360 C1916.977,1346.360 1926.990,1346.360 1937.000,1346.360 C1937.000,1356.370 1937.000,1366.383 1937.000,1376.393 C1926.990,1376.393 1916.977,1376.393 1906.966,1376.393 C1906.966,1366.383 1906.966,1356.370 1906.966,1346.360 ZM1060.026,1376.393 C1070.037,1376.393 1080.050,1376.393 1090.060,1376.393 C1090.060,1394.411 1090.060,1412.435 1090.060,1430.453 C1080.050,1430.453 1070.037,1430.453 1060.026,1430.453 C1060.026,1412.435 1060.026,1394.411 1060.026,1376.393 ZM1222.207,1376.393 C1232.217,1376.393 1242.230,1376.393 1252.240,1376.393 C1252.240,1384.401 1252.240,1392.412 1252.240,1400.420 C1242.230,1400.420 1232.217,1400.420 1222.207,1400.420 C1222.207,1392.412 1222.207,1384.401 1222.207,1376.393 ZM1660.693,1376.393 C1670.703,1376.393 1680.716,1376.393 1690.726,1376.393 C1690.726,1384.401 1690.726,1392.412 1690.726,1400.420 C1680.716,1400.420 1670.703,1400.420 1660.693,1400.420 C1660.693,1392.412 1660.693,1384.401 1660.693,1376.393 ZM1714.753,1376.393 C1724.763,1376.393 1734.776,1376.393 1744.786,1376.393 C1744.786,1394.411 1744.786,1412.435 1744.786,1430.453 C1734.776,1430.453 1724.763,1430.453 1714.753,1430.453 C1714.753,1412.435 1714.753,1394.411 1714.753,1376.393 ZM1876.933,1376.393 C1886.943,1376.393 1896.956,1376.393 1906.966,1376.393 C1906.966,1384.401 1906.966,1392.412 1906.966,1400.420 C1896.956,1400.420 1886.943,1400.420 1876.933,1400.420 C1876.933,1392.412 1876.933,1384.401 1876.933,1376.393 ZM1198.180,1400.420 C1206.188,1400.420 1214.198,1400.420 1222.207,1400.420 C1222.207,1410.430 1222.207,1420.443 1222.207,1430.453 C1214.198,1430.453 1206.188,1430.453 1198.180,1430.453 C1198.180,1420.443 1198.180,1410.430 1198.180,1400.420 ZM1414.420,1400.420 C1424.430,1400.420 1434.443,1400.420 1444.453,1400.420 C1444.453,1410.430 1444.453,1420.443 1444.453,1430.453 C1434.443,1430.453 1424.430,1430.453 1414.420,1430.453 C1414.420,1420.443 1414.420,1410.430 1414.420,1400.420 ZM1036.000,1430.453 C1044.008,1430.453 1052.018,1430.453 1060.026,1430.453 C1060.026,1438.461 1060.026,1446.472 1060.026,1454.480 C1052.018,1454.480 1044.008,1454.480 1036.000,1454.480 C1036.000,1446.472 1036.000,1438.461 1036.000,1430.453 ZM1114.087,1430.453 C1124.097,1430.453 1134.110,1430.453 1144.120,1430.453 C1144.120,1438.461 1144.120,1446.472 1144.120,1454.480 C1134.110,1454.480 1124.097,1454.480 1114.087,1454.480 C1114.087,1446.472 1114.087,1438.461 1114.087,1430.453 ZM1222.207,1430.453 C1232.217,1430.453 1242.230,1430.453 1252.240,1430.453 C1252.240,1438.461 1252.240,1446.472 1252.240,1454.480 C1242.230,1454.480 1232.217,1454.480 1222.207,1454.480 C1222.207,1446.472 1222.207,1438.461 1222.207,1430.453 ZM1390.393,1430.453 C1398.401,1430.453 1406.412,1430.453 1414.420,1430.453 C1414.420,1448.471 1414.420,1466.495 1414.420,1484.513 C1406.412,1484.513 1398.401,1484.513 1390.393,1484.513 C1390.393,1492.521 1390.393,1500.532 1390.393,1508.540 C1372.375,1508.540 1354.351,1508.540 1336.333,1508.540 C1336.333,1500.532 1336.333,1492.521 1336.333,1484.513 C1344.341,1484.513 1352.352,1484.513 1360.360,1484.513 C1360.360,1474.503 1360.360,1464.490 1360.360,1454.480 C1370.370,1454.480 1380.383,1454.480 1390.393,1454.480 C1390.393,1446.472 1390.393,1438.461 1390.393,1430.453 ZM1444.453,1430.453 C1452.461,1430.453 1460.472,1430.453 1468.480,1430.453 C1468.480,1438.461 1468.480,1446.472 1468.480,1454.480 C1460.472,1454.480 1452.461,1454.480 1444.453,1454.480 C1444.453,1446.472 1444.453,1438.461 1444.453,1430.453 ZM1522.540,1430.453 C1532.550,1430.453 1542.563,1430.453 1552.573,1430.453 C1552.573,1438.461 1552.573,1446.472 1552.573,1454.480 C1570.591,1454.480 1588.615,1454.480 1606.633,1454.480 C1606.633,1464.490 1606.633,1474.503 1606.633,1484.513 C1624.651,1484.513 1642.675,1484.513 1660.693,1484.513 C1660.693,1492.521 1660.693,1500.532 1660.693,1508.540 C1642.675,1508.540 1624.651,1508.540 1606.633,1508.540 C1606.633,1518.550 1606.633,1528.563 1606.633,1538.573 C1596.623,1538.573 1586.610,1538.573 1576.600,1538.573 C1576.600,1528.563 1576.600,1518.550 1576.600,1508.540 C1568.592,1508.540 1560.581,1508.540 1552.573,1508.540 C1552.573,1500.532 1552.573,1492.521 1552.573,1484.513 C1542.563,1484.513 1532.550,1484.513 1522.540,1484.513 C1522.540,1466.495 1522.540,1448.471 1522.540,1430.453 ZM1690.726,1430.453 C1698.735,1430.453 1706.745,1430.453 1714.753,1430.453 C1714.753,1438.461 1714.753,1446.472 1714.753,1454.480 C1706.745,1454.480 1698.735,1454.480 1690.726,1454.480 C1690.726,1446.472 1690.726,1438.461 1690.726,1430.453 ZM1822.873,1430.453 C1832.883,1430.453 1842.896,1430.453 1852.906,1430.453 C1852.906,1438.461 1852.906,1446.472 1852.906,1454.480 C1860.915,1454.480 1868.925,1454.480 1876.933,1454.480 C1876.933,1464.490 1876.933,1474.503 1876.933,1484.513 C1868.925,1484.513 1860.915,1484.513 1852.906,1484.513 C1852.906,1492.521 1852.906,1500.532 1852.906,1508.540 C1880.935,1508.540 1908.971,1508.540 1937.000,1508.540 C1937.000,1536.568 1937.000,1564.605 1937.000,1592.633 C1926.990,1592.633 1916.977,1592.633 1906.966,1592.633 C1906.966,1574.615 1906.966,1556.591 1906.966,1538.573 C1896.956,1538.573 1886.943,1538.573 1876.933,1538.573 C1876.933,1546.581 1876.933,1554.592 1876.933,1562.600 C1868.925,1562.600 1860.915,1562.600 1852.906,1562.600 C1852.906,1582.620 1852.906,1602.646 1852.906,1622.667 C1842.896,1622.667 1832.883,1622.667 1822.873,1622.667 C1822.873,1640.685 1822.873,1658.708 1822.873,1676.726 C1832.883,1676.726 1842.896,1676.726 1852.906,1676.726 C1852.906,1684.735 1852.906,1692.745 1852.906,1700.753 C1870.925,1700.753 1888.948,1700.753 1906.966,1700.753 C1906.966,1710.763 1906.966,1720.776 1906.966,1730.787 C1896.956,1730.787 1886.943,1730.787 1876.933,1730.787 C1876.933,1738.795 1876.933,1746.805 1876.933,1754.813 C1886.943,1754.813 1896.956,1754.813 1906.966,1754.813 C1906.966,1782.841 1906.966,1810.878 1906.966,1838.906 C1916.977,1838.906 1926.990,1838.906 1937.000,1838.906 C1937.000,1856.925 1937.000,1874.948 1937.000,1892.967 C1916.980,1892.967 1896.953,1892.967 1876.933,1892.967 C1876.933,1902.977 1876.933,1912.990 1876.933,1923.000 C1850.907,1923.000 1824.873,1923.000 1798.846,1923.000 C1798.846,1912.990 1798.846,1902.977 1798.846,1892.967 C1816.865,1892.967 1834.888,1892.967 1852.906,1892.967 C1852.906,1874.948 1852.906,1856.925 1852.906,1838.906 C1842.896,1838.906 1832.883,1838.906 1822.873,1838.906 C1822.873,1828.896 1822.873,1818.883 1822.873,1808.873 C1814.865,1808.873 1806.855,1808.873 1798.846,1808.873 C1798.846,1818.883 1798.846,1828.896 1798.846,1838.906 C1788.836,1838.906 1778.823,1838.906 1768.813,1838.906 C1768.813,1828.896 1768.813,1818.883 1768.813,1808.873 C1760.805,1808.873 1752.794,1808.873 1744.786,1808.873 C1744.786,1818.883 1744.786,1828.896 1744.786,1838.906 C1726.768,1838.906 1708.744,1838.906 1690.726,1838.906 C1690.726,1828.896 1690.726,1818.883 1690.726,1808.873 C1680.716,1808.873 1670.703,1808.873 1660.693,1808.873 C1660.693,1800.865 1660.693,1792.854 1660.693,1784.847 C1670.703,1784.847 1680.716,1784.847 1690.726,1784.847 C1690.726,1774.836 1690.726,1764.823 1690.726,1754.813 C1662.698,1754.813 1634.662,1754.813 1606.633,1754.813 C1606.633,1764.823 1606.633,1774.836 1606.633,1784.847 C1616.643,1784.847 1626.656,1784.847 1636.667,1784.847 C1636.667,1802.865 1636.667,1820.888 1636.667,1838.906 C1616.646,1838.906 1596.620,1838.906 1576.600,1838.906 C1576.600,1820.888 1576.600,1802.865 1576.600,1784.847 C1568.592,1784.847 1560.581,1784.847 1552.573,1784.847 C1552.573,1774.836 1552.573,1764.823 1552.573,1754.813 C1560.581,1754.813 1568.592,1754.813 1576.600,1754.813 C1576.600,1746.805 1576.600,1738.795 1576.600,1730.787 C1568.592,1730.787 1560.581,1730.787 1552.573,1730.787 C1552.573,1738.795 1552.573,1746.805 1552.573,1754.813 C1542.563,1754.813 1532.550,1754.813 1522.540,1754.813 C1522.540,1746.805 1522.540,1738.795 1522.540,1730.787 C1514.532,1730.787 1506.521,1730.787 1498.513,1730.787 C1498.513,1720.776 1498.513,1710.763 1498.513,1700.753 C1516.531,1700.753 1534.555,1700.753 1552.573,1700.753 C1552.573,1692.745 1552.573,1684.735 1552.573,1676.726 C1542.563,1676.726 1532.550,1676.726 1522.540,1676.726 C1522.540,1666.716 1522.540,1656.703 1522.540,1646.693 C1532.550,1646.693 1542.563,1646.693 1552.573,1646.693 C1552.573,1638.685 1552.573,1630.675 1552.573,1622.667 C1542.563,1622.667 1532.550,1622.667 1522.540,1622.667 C1522.540,1630.675 1522.540,1638.685 1522.540,1646.693 C1514.532,1646.693 1506.521,1646.693 1498.513,1646.693 C1498.513,1638.685 1498.513,1630.675 1498.513,1622.667 C1480.495,1622.667 1462.471,1622.667 1444.453,1622.667 C1444.453,1612.656 1444.453,1602.643 1444.453,1592.633 C1452.461,1592.633 1460.472,1592.633 1468.480,1592.633 C1468.480,1564.605 1468.480,1536.568 1468.480,1508.540 C1478.490,1508.540 1488.503,1508.540 1498.513,1508.540 C1498.513,1518.550 1498.513,1528.563 1498.513,1538.573 C1524.539,1538.573 1550.574,1538.573 1576.600,1538.573 C1576.600,1556.591 1576.600,1574.615 1576.600,1592.633 C1604.628,1592.633 1632.665,1592.633 1660.693,1592.633 C1660.693,1610.651 1660.693,1628.675 1660.693,1646.693 C1652.685,1646.693 1644.674,1646.693 1636.667,1646.693 C1636.667,1638.685 1636.667,1630.675 1636.667,1622.667 C1616.646,1622.667 1596.620,1622.667 1576.600,1622.667 C1576.600,1640.685 1576.600,1658.708 1576.600,1676.726 C1586.610,1676.726 1596.623,1676.726 1606.633,1676.726 C1606.633,1694.745 1606.633,1712.768 1606.633,1730.787 C1634.662,1730.787 1662.698,1730.787 1690.726,1730.787 C1690.726,1712.768 1690.726,1694.745 1690.726,1676.726 C1726.763,1676.726 1762.810,1676.726 1798.846,1676.726 C1798.846,1658.708 1798.846,1640.685 1798.846,1622.667 C1788.836,1622.667 1778.823,1622.667 1768.813,1622.667 C1768.813,1630.675 1768.813,1638.685 1768.813,1646.693 C1760.805,1646.693 1752.794,1646.693 1744.786,1646.693 C1744.786,1638.685 1744.786,1630.675 1744.786,1622.667 C1734.776,1622.667 1724.763,1622.667 1714.753,1622.667 C1714.753,1612.656 1714.753,1602.643 1714.753,1592.633 C1706.745,1592.633 1698.735,1592.633 1690.726,1592.633 C1690.726,1582.623 1690.726,1572.610 1690.726,1562.600 C1680.716,1562.600 1670.703,1562.600 1660.693,1562.600 C1660.693,1544.582 1660.693,1526.558 1660.693,1508.540 C1670.703,1508.540 1680.716,1508.540 1690.726,1508.540 C1690.726,1518.550 1690.726,1528.563 1690.726,1538.573 C1698.735,1538.573 1706.745,1538.573 1714.753,1538.573 C1714.753,1546.581 1714.753,1554.592 1714.753,1562.600 C1724.763,1562.600 1734.776,1562.600 1744.786,1562.600 C1744.786,1572.610 1744.786,1582.623 1744.786,1592.633 C1752.794,1592.633 1760.805,1592.633 1768.813,1592.633 C1768.813,1582.623 1768.813,1572.610 1768.813,1562.600 C1778.823,1562.600 1788.836,1562.600 1798.846,1562.600 C1798.846,1572.610 1798.846,1582.623 1798.846,1592.633 C1806.855,1592.633 1814.865,1592.633 1822.873,1592.633 C1822.873,1574.615 1822.873,1556.591 1822.873,1538.573 C1814.865,1538.573 1806.855,1538.573 1798.846,1538.573 C1798.846,1528.563 1798.846,1518.550 1798.846,1508.540 C1788.836,1508.540 1778.823,1508.540 1768.813,1508.540 C1768.813,1526.558 1768.813,1544.582 1768.813,1562.600 C1760.805,1562.600 1752.794,1562.600 1744.786,1562.600 C1744.786,1554.592 1744.786,1546.581 1744.786,1538.573 C1734.776,1538.573 1724.763,1538.573 1714.753,1538.573 C1714.753,1528.563 1714.753,1518.550 1714.753,1508.540 C1706.745,1508.540 1698.735,1508.540 1690.726,1508.540 C1690.726,1500.532 1690.726,1492.521 1690.726,1484.513 C1698.735,1484.513 1706.745,1484.513 1714.753,1484.513 C1714.753,1474.503 1714.753,1464.490 1714.753,1454.480 C1732.771,1454.480 1750.795,1454.480 1768.813,1454.480 C1768.813,1464.490 1768.813,1474.503 1768.813,1484.513 C1778.823,1484.513 1788.836,1484.513 1798.846,1484.513 C1798.846,1474.503 1798.846,1464.490 1798.846,1454.480 C1806.855,1454.480 1814.865,1454.480 1822.873,1454.480 C1822.873,1446.472 1822.873,1438.461 1822.873,1430.453 ZM1090.060,1454.480 C1098.068,1454.480 1106.078,1454.480 1114.087,1454.480 C1114.087,1464.490 1114.087,1474.503 1114.087,1484.513 C1106.078,1484.513 1098.068,1484.513 1090.060,1484.513 C1090.060,1474.503 1090.060,1464.490 1090.060,1454.480 ZM1168.146,1454.480 C1186.165,1454.480 1204.188,1454.480 1222.207,1454.480 C1222.207,1464.490 1222.207,1474.503 1222.207,1484.513 C1214.198,1484.513 1206.188,1484.513 1198.180,1484.513 C1198.180,1492.521 1198.180,1500.532 1198.180,1508.540 C1206.188,1508.540 1214.198,1508.540 1222.207,1508.540 C1222.207,1518.550 1222.207,1528.563 1222.207,1538.573 C1214.198,1538.573 1206.188,1538.573 1198.180,1538.573 C1198.180,1546.581 1198.180,1554.592 1198.180,1562.600 C1188.170,1562.600 1178.157,1562.600 1168.146,1562.600 C1168.146,1554.592 1168.146,1546.581 1168.146,1538.573 C1150.128,1538.573 1132.105,1538.573 1114.087,1538.573 C1114.087,1528.563 1114.087,1518.550 1114.087,1508.540 C1124.097,1508.540 1134.110,1508.540 1144.120,1508.540 C1144.120,1500.532 1144.120,1492.521 1144.120,1484.513 C1152.128,1484.513 1160.138,1484.513 1168.146,1484.513 C1168.146,1474.503 1168.146,1464.490 1168.146,1454.480 ZM1276.266,1454.480 C1286.277,1454.480 1296.290,1454.480 1306.300,1454.480 C1306.300,1464.490 1306.300,1474.503 1306.300,1484.513 C1296.290,1484.513 1286.277,1484.513 1276.266,1484.513 C1276.266,1474.503 1276.266,1464.490 1276.266,1454.480 ZM1468.480,1454.480 C1478.490,1454.480 1488.503,1454.480 1498.513,1454.480 C1498.513,1464.490 1498.513,1474.503 1498.513,1484.513 C1488.503,1484.513 1478.490,1484.513 1468.480,1484.513 C1468.480,1474.503 1468.480,1464.490 1468.480,1454.480 ZM1660.693,1454.480 C1670.703,1454.480 1680.716,1454.480 1690.726,1454.480 C1690.726,1464.490 1690.726,1474.503 1690.726,1484.513 C1680.716,1484.513 1670.703,1484.513 1660.693,1484.513 C1660.693,1474.503 1660.693,1464.490 1660.693,1454.480 ZM1444.453,1484.513 C1452.461,1484.513 1460.472,1484.513 1468.480,1484.513 C1468.480,1492.521 1468.480,1500.532 1468.480,1508.540 C1460.472,1508.540 1452.461,1508.540 1444.453,1508.540 C1444.453,1500.532 1444.453,1492.521 1444.453,1484.513 ZM1498.513,1484.513 C1506.521,1484.513 1514.532,1484.513 1522.540,1484.513 C1522.540,1492.521 1522.540,1500.532 1522.540,1508.540 C1514.532,1508.540 1506.521,1508.540 1498.513,1508.540 C1498.513,1500.532 1498.513,1492.521 1498.513,1484.513 ZM1036.000,1508.540 C1044.008,1508.540 1052.018,1508.540 1060.026,1508.540 C1060.026,1518.550 1060.026,1528.563 1060.026,1538.573 C1052.018,1538.573 1044.008,1538.573 1036.000,1538.573 C1036.000,1528.563 1036.000,1518.550 1036.000,1508.540 ZM1252.240,1508.540 C1260.248,1508.540 1268.258,1508.540 1276.266,1508.540 C1276.266,1526.558 1276.266,1544.582 1276.266,1562.600 C1268.258,1562.600 1260.248,1562.600 1252.240,1562.600 C1252.240,1544.582 1252.240,1526.558 1252.240,1508.540 ZM1306.300,1508.540 C1316.310,1508.540 1326.323,1508.540 1336.333,1508.540 C1336.333,1518.550 1336.333,1528.563 1336.333,1538.573 C1326.323,1538.573 1316.310,1538.573 1306.300,1538.573 C1306.300,1528.563 1306.300,1518.550 1306.300,1508.540 ZM1390.393,1508.540 C1408.411,1508.540 1426.435,1508.540 1444.453,1508.540 C1444.453,1518.550 1444.453,1528.563 1444.453,1538.573 C1434.443,1538.573 1424.430,1538.573 1414.420,1538.573 C1414.420,1546.581 1414.420,1554.592 1414.420,1562.600 C1406.412,1562.600 1398.401,1562.600 1390.393,1562.600 C1390.393,1582.620 1390.393,1602.646 1390.393,1622.667 C1372.375,1622.667 1354.351,1622.667 1336.333,1622.667 C1336.333,1602.646 1336.333,1582.620 1336.333,1562.600 C1344.341,1562.600 1352.352,1562.600 1360.360,1562.600 C1360.360,1554.592 1360.360,1546.581 1360.360,1538.573 C1370.370,1538.573 1380.383,1538.573 1390.393,1538.573 C1390.393,1528.563 1390.393,1518.550 1390.393,1508.540 ZM1090.060,1538.573 C1098.068,1538.573 1106.078,1538.573 1114.087,1538.573 C1114.087,1556.591 1114.087,1574.615 1114.087,1592.633 C1106.078,1592.633 1098.068,1592.633 1090.060,1592.633 C1090.060,1574.615 1090.060,1556.591 1090.060,1538.573 ZM1036.000,1562.600 C1044.008,1562.600 1052.018,1562.600 1060.026,1562.600 C1060.026,1600.638 1060.026,1638.688 1060.026,1676.726 C1078.045,1676.726 1096.068,1676.726 1114.087,1676.726 C1114.087,1684.735 1114.087,1692.745 1114.087,1700.753 C1088.060,1700.753 1062.026,1700.753 1036.000,1700.753 C1036.000,1654.707 1036.000,1608.646 1036.000,1562.600 ZM1198.180,1562.600 C1206.188,1562.600 1214.198,1562.600 1222.207,1562.600 C1222.207,1572.610 1222.207,1582.623 1222.207,1592.633 C1214.198,1592.633 1206.188,1592.633 1198.180,1592.633 C1198.180,1582.623 1198.180,1572.610 1198.180,1562.600 ZM1414.420,1562.600 C1424.430,1562.600 1434.443,1562.600 1444.453,1562.600 C1444.453,1572.610 1444.453,1582.623 1444.453,1592.633 C1434.443,1592.633 1424.430,1592.633 1414.420,1592.633 C1414.420,1582.623 1414.420,1572.610 1414.420,1562.600 ZM1498.513,1562.600 C1498.513,1572.610 1498.513,1582.623 1498.513,1592.633 C1506.521,1592.633 1514.532,1592.633 1522.540,1592.633 C1522.540,1582.623 1522.540,1572.610 1522.540,1562.600 C1514.532,1562.600 1506.521,1562.600 1498.513,1562.600 ZM1114.087,1592.633 C1132.105,1592.633 1150.128,1592.633 1168.146,1592.633 C1168.146,1602.643 1168.146,1612.656 1168.146,1622.667 C1196.175,1622.667 1224.211,1622.667 1252.240,1622.667 C1252.240,1648.693 1252.240,1674.727 1252.240,1700.753 C1234.222,1700.753 1216.198,1700.753 1198.180,1700.753 C1198.180,1692.745 1198.180,1684.735 1198.180,1676.726 C1206.188,1676.726 1214.198,1676.726 1222.207,1676.726 C1222.207,1666.716 1222.207,1656.703 1222.207,1646.693 C1214.198,1646.693 1206.188,1646.693 1198.180,1646.693 C1198.180,1656.703 1198.180,1666.716 1198.180,1676.726 C1188.170,1676.726 1178.157,1676.726 1168.146,1676.726 C1168.146,1666.716 1168.146,1656.703 1168.146,1646.693 C1150.128,1646.693 1132.105,1646.693 1114.087,1646.693 C1114.087,1628.675 1114.087,1610.651 1114.087,1592.633 ZM1276.266,1592.633 C1286.277,1592.633 1296.290,1592.633 1306.300,1592.633 C1306.300,1602.643 1306.300,1612.656 1306.300,1622.667 C1296.290,1622.667 1286.277,1622.667 1276.266,1622.667 C1276.266,1612.656 1276.266,1602.643 1276.266,1592.633 ZM1390.393,1622.667 C1408.411,1622.667 1426.435,1622.667 1444.453,1622.667 C1444.453,1630.675 1444.453,1638.685 1444.453,1646.693 C1462.471,1646.693 1480.495,1646.693 1498.513,1646.693 C1498.513,1664.711 1498.513,1682.735 1498.513,1700.753 C1488.503,1700.753 1478.490,1700.753 1468.480,1700.753 C1468.480,1692.745 1468.480,1684.735 1468.480,1676.726 C1450.462,1676.726 1432.438,1676.726 1414.420,1676.726 C1414.420,1684.735 1414.420,1692.745 1414.420,1700.753 C1406.412,1700.753 1398.401,1700.753 1390.393,1700.753 C1390.393,1692.745 1390.393,1684.735 1390.393,1676.726 C1380.383,1676.726 1370.370,1676.726 1360.360,1676.726 C1360.360,1684.735 1360.360,1692.745 1360.360,1700.753 C1352.352,1700.753 1344.341,1700.753 1336.333,1700.753 C1336.333,1692.745 1336.333,1684.735 1336.333,1676.726 C1316.313,1676.726 1296.287,1676.726 1276.266,1676.726 C1276.266,1666.716 1276.266,1656.703 1276.266,1646.693 C1314.305,1646.693 1352.355,1646.693 1390.393,1646.693 C1390.393,1638.685 1390.393,1630.675 1390.393,1622.667 ZM1690.726,1622.667 C1698.735,1622.667 1706.745,1622.667 1714.753,1622.667 C1714.753,1630.675 1714.753,1638.685 1714.753,1646.693 C1706.745,1646.693 1698.735,1646.693 1690.726,1646.693 C1690.726,1638.685 1690.726,1630.675 1690.726,1622.667 ZM1876.933,1622.667 C1896.953,1622.667 1916.980,1622.667 1937.000,1622.667 C1937.000,1640.685 1937.000,1658.708 1937.000,1676.726 C1926.990,1676.726 1916.977,1676.726 1906.966,1676.726 C1906.966,1666.716 1906.966,1656.703 1906.966,1646.693 C1896.956,1646.693 1886.943,1646.693 1876.933,1646.693 C1876.933,1638.685 1876.933,1630.675 1876.933,1622.667 ZM1852.906,1646.693 C1860.915,1646.693 1868.925,1646.693 1876.933,1646.693 C1876.933,1656.703 1876.933,1666.716 1876.933,1676.726 C1868.925,1676.726 1860.915,1676.726 1852.906,1676.726 C1852.906,1666.716 1852.906,1656.703 1852.906,1646.693 ZM1252.240,1700.753 C1260.248,1700.753 1268.258,1700.753 1276.266,1700.753 C1276.266,1718.771 1276.266,1736.795 1276.266,1754.813 C1268.258,1754.813 1260.248,1754.813 1252.240,1754.813 C1252.240,1736.795 1252.240,1718.771 1252.240,1700.753 ZM1306.300,1700.753 C1316.310,1700.753 1326.323,1700.753 1336.333,1700.753 C1336.333,1710.763 1336.333,1720.776 1336.333,1730.787 C1326.323,1730.787 1316.310,1730.787 1306.300,1730.787 C1306.300,1720.776 1306.300,1710.763 1306.300,1700.753 ZM1414.420,1700.753 C1432.438,1700.753 1450.462,1700.753 1468.480,1700.753 C1468.480,1710.763 1468.480,1720.776 1468.480,1730.787 C1450.462,1730.787 1432.438,1730.787 1414.420,1730.787 C1414.420,1720.776 1414.420,1710.763 1414.420,1700.753 ZM1714.753,1700.753 C1714.753,1728.782 1714.753,1756.818 1714.753,1784.847 C1742.781,1784.847 1770.818,1784.847 1798.846,1784.847 C1798.846,1756.818 1798.846,1728.782 1798.846,1700.753 C1770.818,1700.753 1742.781,1700.753 1714.753,1700.753 ZM1036.000,1730.787 C1098.063,1730.787 1160.144,1730.787 1222.207,1730.787 C1222.207,1794.851 1222.207,1858.935 1222.207,1923.000 C1160.144,1923.000 1098.063,1923.000 1036.000,1923.000 C1036.000,1858.935 1036.000,1794.851 1036.000,1730.787 ZM1336.333,1730.787 C1354.351,1730.787 1372.375,1730.787 1390.393,1730.787 C1390.393,1738.795 1390.393,1746.805 1390.393,1754.813 C1398.401,1754.813 1406.412,1754.813 1414.420,1754.813 C1414.420,1772.831 1414.420,1790.855 1414.420,1808.873 C1396.402,1808.873 1378.378,1808.873 1360.360,1808.873 C1360.360,1790.855 1360.360,1772.831 1360.360,1754.813 C1352.352,1754.813 1344.341,1754.813 1336.333,1754.813 C1336.333,1746.805 1336.333,1738.795 1336.333,1730.787 ZM1468.480,1730.787 C1478.490,1730.787 1488.503,1730.787 1498.513,1730.787 C1498.513,1738.795 1498.513,1746.805 1498.513,1754.813 C1488.503,1754.813 1478.490,1754.813 1468.480,1754.813 C1468.480,1746.805 1468.480,1738.795 1468.480,1730.787 ZM1744.786,1730.787 C1752.794,1730.787 1760.805,1730.787 1768.813,1730.787 C1768.813,1738.795 1768.813,1746.805 1768.813,1754.813 C1760.805,1754.813 1752.794,1754.813 1744.786,1754.813 C1744.786,1746.805 1744.786,1738.795 1744.786,1730.787 ZM1822.873,1730.787 C1822.873,1738.795 1822.873,1746.805 1822.873,1754.813 C1832.883,1754.813 1842.896,1754.813 1852.906,1754.813 C1852.906,1746.805 1852.906,1738.795 1852.906,1730.787 C1842.896,1730.787 1832.883,1730.787 1822.873,1730.787 ZM1060.026,1754.813 C1060.026,1800.860 1060.026,1846.920 1060.026,1892.967 C1106.073,1892.967 1152.133,1892.967 1198.180,1892.967 C1198.180,1846.920 1198.180,1800.860 1198.180,1754.813 C1152.133,1754.813 1106.073,1754.813 1060.026,1754.813 ZM1276.266,1754.813 C1286.277,1754.813 1296.290,1754.813 1306.300,1754.813 C1306.300,1772.831 1306.300,1790.855 1306.300,1808.873 C1296.290,1808.873 1286.277,1808.873 1276.266,1808.873 C1276.266,1818.883 1276.266,1828.896 1276.266,1838.906 C1268.258,1838.906 1260.248,1838.906 1252.240,1838.906 C1252.240,1820.888 1252.240,1802.865 1252.240,1784.847 C1260.248,1784.847 1268.258,1784.847 1276.266,1784.847 C1276.266,1774.836 1276.266,1764.823 1276.266,1754.813 ZM1498.513,1754.813 C1506.521,1754.813 1514.532,1754.813 1522.540,1754.813 C1522.540,1772.831 1522.540,1790.855 1522.540,1808.873 C1514.532,1808.873 1506.521,1808.873 1498.513,1808.873 C1498.513,1790.855 1498.513,1772.831 1498.513,1754.813 ZM1090.060,1784.847 C1116.086,1784.847 1142.120,1784.847 1168.146,1784.847 C1168.146,1810.873 1168.146,1836.907 1168.146,1862.933 C1142.120,1862.933 1116.086,1862.933 1090.060,1862.933 C1090.060,1836.907 1090.060,1810.873 1090.060,1784.847 ZM1444.453,1784.847 C1452.461,1784.847 1460.472,1784.847 1468.480,1784.847 C1468.480,1792.854 1468.480,1800.865 1468.480,1808.873 C1460.472,1808.873 1452.461,1808.873 1444.453,1808.873 C1444.453,1800.865 1444.453,1792.854 1444.453,1784.847 ZM1852.906,1784.847 C1852.906,1792.854 1852.906,1800.865 1852.906,1808.873 C1860.915,1808.873 1868.925,1808.873 1876.933,1808.873 C1876.933,1800.865 1876.933,1792.854 1876.933,1784.847 C1868.925,1784.847 1860.915,1784.847 1852.906,1784.847 ZM1306.300,1808.873 C1316.310,1808.873 1326.323,1808.873 1336.333,1808.873 C1336.333,1836.902 1336.333,1864.938 1336.333,1892.967 C1326.323,1892.967 1316.310,1892.967 1306.300,1892.967 C1306.300,1864.938 1306.300,1836.902 1306.300,1808.873 ZM1414.420,1808.873 C1424.430,1808.873 1434.443,1808.873 1444.453,1808.873 C1444.453,1826.891 1444.453,1844.915 1444.453,1862.933 C1416.425,1862.933 1388.388,1862.933 1360.360,1862.933 C1360.360,1854.925 1360.360,1846.914 1360.360,1838.906 C1378.378,1838.906 1396.402,1838.906 1414.420,1838.906 C1414.420,1828.896 1414.420,1818.883 1414.420,1808.873 ZM1468.480,1808.873 C1478.490,1808.873 1488.503,1808.873 1498.513,1808.873 C1498.513,1818.883 1498.513,1828.896 1498.513,1838.906 C1516.531,1838.906 1534.555,1838.906 1552.573,1838.906 C1552.573,1846.914 1552.573,1854.925 1552.573,1862.933 C1542.563,1862.933 1532.550,1862.933 1522.540,1862.933 C1522.540,1872.943 1522.540,1882.956 1522.540,1892.967 C1514.532,1892.967 1506.521,1892.967 1498.513,1892.967 C1498.513,1902.977 1498.513,1912.990 1498.513,1923.000 C1488.503,1923.000 1478.490,1923.000 1468.480,1923.000 C1468.480,1884.961 1468.480,1846.912 1468.480,1808.873 ZM1660.693,1838.906 C1670.703,1838.906 1680.716,1838.906 1690.726,1838.906 C1690.726,1846.914 1690.726,1854.925 1690.726,1862.933 C1680.716,1862.933 1670.703,1862.933 1660.693,1862.933 C1660.693,1854.925 1660.693,1846.914 1660.693,1838.906 ZM1798.846,1838.906 C1806.855,1838.906 1814.865,1838.906 1822.873,1838.906 C1822.873,1846.914 1822.873,1854.925 1822.873,1862.933 C1814.865,1862.933 1806.855,1862.933 1798.846,1862.933 C1798.846,1854.925 1798.846,1846.914 1798.846,1838.906 ZM1552.573,1862.933 C1560.581,1862.933 1568.592,1862.933 1576.600,1862.933 C1576.600,1872.943 1576.600,1882.956 1576.600,1892.967 C1568.592,1892.967 1560.581,1892.967 1552.573,1892.967 C1552.573,1882.956 1552.573,1872.943 1552.573,1862.933 ZM1606.633,1862.933 C1616.643,1862.933 1626.656,1862.933 1636.667,1862.933 C1636.667,1882.953 1636.667,1902.979 1636.667,1923.000 C1626.656,1923.000 1616.643,1923.000 1606.633,1923.000 C1606.633,1902.979 1606.633,1882.953 1606.633,1862.933 ZM1714.753,1862.933 C1724.763,1862.933 1734.776,1862.933 1744.786,1862.933 C1744.786,1882.953 1744.786,1902.979 1744.786,1923.000 C1716.758,1923.000 1688.721,1923.000 1660.693,1923.000 C1660.693,1912.990 1660.693,1902.977 1660.693,1892.967 C1678.711,1892.967 1696.735,1892.967 1714.753,1892.967 C1714.753,1882.956 1714.753,1872.943 1714.753,1862.933 ZM1276.266,1892.967 C1286.277,1892.967 1296.290,1892.967 1306.300,1892.967 C1306.300,1902.977 1306.300,1912.990 1306.300,1923.000 C1296.290,1923.000 1286.277,1923.000 1276.266,1923.000 C1276.266,1912.990 1276.266,1902.977 1276.266,1892.967 ZM1360.360,1892.967 C1370.370,1892.967 1380.383,1892.967 1390.393,1892.967 C1390.393,1902.977 1390.393,1912.990 1390.393,1923.000 C1380.383,1923.000 1370.370,1923.000 1360.360,1923.000 C1360.360,1912.990 1360.360,1902.977 1360.360,1892.967 Z"/>
<path fill-rule="evenodd"  fill="rgb(0, 0, 0)"
 d="M340.034,1652.997 L326.887,1708.034 L273.003,1704.229 L318.540,1734.404 L298.592,1786.952 L339.875,1750.723 L381.363,1787.000 L361.301,1734.428 L406.997,1704.205 L353.090,1707.986 L340.034,1652.997 Z"/>
<path fill-rule="evenodd"  fill="rgb(0, 0, 0)"
 d="M2634.034,1551.997 L2620.887,1607.034 L2567.003,1603.229 L2612.539,1633.404 L2592.591,1685.952 L2633.875,1649.723 L2675.363,1686.000 L2655.301,1633.428 L2700.997,1603.205 L2647.090,1606.986 L2634.034,1551.997 Z"/>
</svg>
